<?xml version="1.0" encoding="utf-8" standalone="no"?>
<!DOCTYPE svg PUBLIC "-//W3C//DTD SVG 1.1//EN"
  "http://www.w3.org/Graphics/SVG/1.1/DTD/svg11.dtd">
<svg xmlns:xlink="http://www.w3.org/1999/xlink" width="864pt" height="432pt" viewBox="0 0 864 432" xmlns="http://www.w3.org/2000/svg" version="1.1">
 <metadata>
  <rdf:RDF xmlns:dc="http://purl.org/dc/elements/1.1/" xmlns:cc="http://creativecommons.org/ns#" xmlns:rdf="http://www.w3.org/1999/02/22-rdf-syntax-ns#">
   <cc:Work>
    <dc:type rdf:resource="http://purl.org/dc/dcmitype/StillImage"/>
    <dc:date>2024-10-31T16:21:27.490948</dc:date>
    <dc:format>image/svg+xml</dc:format>
    <dc:creator>
     <cc:Agent>
      <dc:title>Matplotlib v3.7.2, https://matplotlib.org/</dc:title>
     </cc:Agent>
    </dc:creator>
   </cc:Work>
  </rdf:RDF>
 </metadata>
 <defs>
  <style type="text/css">*{stroke-linejoin: round; stroke-linecap: butt}</style>
 </defs>
 <g id="figure_1">
  <g id="patch_1">
   <path d="M 0 432 
L 864 432 
L 864 0 
L 0 0 
z
" style="fill: #ffffff"/>
  </g>
  <g id="axes_1">
   <g id="patch_2">
    <path d="M 58.17125 378.652825 
L 852.070972 378.652825 
L 852.070972 28.095 
L 58.17125 28.095 
z
" style="fill: #ffffff"/>
   </g>
   <g id="matplotlib.axis_1">
    <g id="xtick_1">
     <g id="line2d_1">
      <path d="M 94.257601 378.652825 
L 94.257601 28.095 
" clip-path="url(#p17f38ac168)" style="fill: none; stroke-dasharray: 2.96,1.28; stroke-dashoffset: 0; stroke: #b0b0b0; stroke-opacity: 0.3; stroke-width: 0.8"/>
     </g>
     <g id="line2d_2">
      <defs>
       <path id="m8cbbd222be" d="M 0 0 
L 0 3.5 
" style="stroke: #000000; stroke-width: 0.8"/>
      </defs>
      <g>
       <use xlink:href="#m8cbbd222be" x="94.257601" y="378.652825" style="stroke: #000000; stroke-width: 0.8"/>
      </g>
     </g>
     <g id="text_1">
      <!-- 2020 -->
      <g transform="translate(89.175271 404.656319) rotate(-45) scale(0.1 -0.1)">
       <defs>
        <path id="SimHei-32" d="M 300 250 
Q 325 625 650 925 
Q 975 1225 1475 1862 
Q 1975 2500 2125 2850 
Q 2275 3200 2237 3450 
Q 2200 3700 2000 3862 
Q 1800 4025 1537 4000 
Q 1275 3975 1037 3800 
Q 800 3625 675 3275 
L 200 3350 
Q 400 3925 712 4187 
Q 1025 4450 1450 4475 
Q 1700 4500 1900 4462 
Q 2100 4425 2312 4287 
Q 2525 4150 2662 3875 
Q 2800 3600 2762 3212 
Q 2725 2825 2375 2287 
Q 2025 1750 1025 600 
L 2825 600 
L 2825 150 
L 300 150 
L 300 250 
z
" transform="scale(0.015625)"/>
        <path id="SimHei-30" d="M 225 2537 
Q 250 3200 412 3587 
Q 575 3975 875 4225 
Q 1175 4475 1612 4475 
Q 2050 4475 2375 4112 
Q 2700 3750 2800 3200 
Q 2900 2650 2862 1937 
Q 2825 1225 2612 775 
Q 2400 325 1975 150 
Q 1550 -25 1125 187 
Q 700 400 525 750 
Q 350 1100 275 1487 
Q 200 1875 225 2537 
z
M 750 2687 
Q 675 2000 800 1462 
Q 925 925 1212 700 
Q 1500 475 1800 612 
Q 2100 750 2237 1162 
Q 2375 1575 2375 2062 
Q 2375 2550 2337 2950 
Q 2300 3350 2112 3675 
Q 1925 4000 1612 4012 
Q 1300 4025 1062 3700 
Q 825 3375 750 2687 
z
" transform="scale(0.015625)"/>
       </defs>
       <use xlink:href="#SimHei-32"/>
       <use xlink:href="#SimHei-30" x="50"/>
       <use xlink:href="#SimHei-32" x="100"/>
       <use xlink:href="#SimHei-30" x="150"/>
      </g>
     </g>
    </g>
    <g id="xtick_2">
     <g id="line2d_3">
      <path d="M 243.918841 378.652825 
L 243.918841 28.095 
" clip-path="url(#p17f38ac168)" style="fill: none; stroke-dasharray: 2.96,1.28; stroke-dashoffset: 0; stroke: #b0b0b0; stroke-opacity: 0.3; stroke-width: 0.8"/>
     </g>
     <g id="line2d_4">
      <g>
       <use xlink:href="#m8cbbd222be" x="243.918841" y="378.652825" style="stroke: #000000; stroke-width: 0.8"/>
      </g>
     </g>
     <g id="text_2">
      <!-- 2021 -->
      <g transform="translate(238.836511 404.656319) rotate(-45) scale(0.1 -0.1)">
       <defs>
        <path id="SimHei-31" d="M 1400 3600 
Q 1075 3275 575 2975 
L 575 3450 
Q 1200 3875 1600 4450 
L 1900 4450 
L 1900 150 
L 1400 150 
L 1400 3600 
z
" transform="scale(0.015625)"/>
       </defs>
       <use xlink:href="#SimHei-32"/>
       <use xlink:href="#SimHei-30" x="50"/>
       <use xlink:href="#SimHei-32" x="100"/>
       <use xlink:href="#SimHei-31" x="150"/>
      </g>
     </g>
    </g>
    <g id="xtick_3">
     <g id="line2d_5">
      <path d="M 393.171171 378.652825 
L 393.171171 28.095 
" clip-path="url(#p17f38ac168)" style="fill: none; stroke-dasharray: 2.96,1.28; stroke-dashoffset: 0; stroke: #b0b0b0; stroke-opacity: 0.3; stroke-width: 0.8"/>
     </g>
     <g id="line2d_6">
      <g>
       <use xlink:href="#m8cbbd222be" x="393.171171" y="378.652825" style="stroke: #000000; stroke-width: 0.8"/>
      </g>
     </g>
     <g id="text_3">
      <!-- 2022 -->
      <g transform="translate(388.088841 404.656319) rotate(-45) scale(0.1 -0.1)">
       <use xlink:href="#SimHei-32"/>
       <use xlink:href="#SimHei-30" x="50"/>
       <use xlink:href="#SimHei-32" x="100"/>
       <use xlink:href="#SimHei-32" x="150"/>
      </g>
     </g>
    </g>
    <g id="xtick_4">
     <g id="line2d_7">
      <path d="M 542.423501 378.652825 
L 542.423501 28.095 
" clip-path="url(#p17f38ac168)" style="fill: none; stroke-dasharray: 2.96,1.28; stroke-dashoffset: 0; stroke: #b0b0b0; stroke-opacity: 0.3; stroke-width: 0.8"/>
     </g>
     <g id="line2d_8">
      <g>
       <use xlink:href="#m8cbbd222be" x="542.423501" y="378.652825" style="stroke: #000000; stroke-width: 0.8"/>
      </g>
     </g>
     <g id="text_4">
      <!-- 2023 -->
      <g transform="translate(537.341171 404.656319) rotate(-45) scale(0.1 -0.1)">
       <defs>
        <path id="SimHei-33" d="M 250 1225 
L 700 1300 
Q 800 975 1025 762 
Q 1250 550 1587 562 
Q 1925 575 2125 837 
Q 2325 1100 2300 1437 
Q 2275 1775 2037 1962 
Q 1800 2150 1275 2225 
L 1275 2550 
Q 1800 2600 2037 2825 
Q 2275 3050 2250 3412 
Q 2225 3775 1925 3937 
Q 1625 4100 1287 3975 
Q 950 3850 750 3275 
L 300 3350 
Q 450 3800 712 4100 
Q 975 4400 1425 4450 
Q 1875 4500 2212 4337 
Q 2550 4175 2687 3837 
Q 2825 3500 2725 3100 
Q 2625 2700 2150 2400 
Q 2500 2250 2687 1950 
Q 2875 1650 2812 1162 
Q 2750 675 2375 375 
Q 2000 75 1525 87 
Q 1050 100 700 387 
Q 350 675 250 1225 
z
" transform="scale(0.015625)"/>
       </defs>
       <use xlink:href="#SimHei-32"/>
       <use xlink:href="#SimHei-30" x="50"/>
       <use xlink:href="#SimHei-32" x="100"/>
       <use xlink:href="#SimHei-33" x="150"/>
      </g>
     </g>
    </g>
    <g id="xtick_5">
     <g id="line2d_9">
      <path d="M 691.675831 378.652825 
L 691.675831 28.095 
" clip-path="url(#p17f38ac168)" style="fill: none; stroke-dasharray: 2.96,1.28; stroke-dashoffset: 0; stroke: #b0b0b0; stroke-opacity: 0.3; stroke-width: 0.8"/>
     </g>
     <g id="line2d_10">
      <g>
       <use xlink:href="#m8cbbd222be" x="691.675831" y="378.652825" style="stroke: #000000; stroke-width: 0.8"/>
      </g>
     </g>
     <g id="text_5">
      <!-- 2024 -->
      <g transform="translate(686.593501 404.656319) rotate(-45) scale(0.1 -0.1)">
       <defs>
        <path id="SimHei-34" d="M 2000 1100 
L 75 1100 
L 75 1525 
L 2100 4450 
L 2475 4450 
L 2475 1525 
L 3075 1525 
L 3075 1100 
L 2475 1100 
L 2475 150 
L 2000 150 
L 2000 1100 
z
M 2000 1525 
L 2000 3500 
L 600 1525 
L 2000 1525 
z
" transform="scale(0.015625)"/>
       </defs>
       <use xlink:href="#SimHei-32"/>
       <use xlink:href="#SimHei-30" x="50"/>
       <use xlink:href="#SimHei-32" x="100"/>
       <use xlink:href="#SimHei-34" x="150"/>
      </g>
     </g>
    </g>
    <g id="xtick_6">
     <g id="line2d_11">
      <path d="M 841.337071 378.652825 
L 841.337071 28.095 
" clip-path="url(#p17f38ac168)" style="fill: none; stroke-dasharray: 2.96,1.28; stroke-dashoffset: 0; stroke: #b0b0b0; stroke-opacity: 0.3; stroke-width: 0.8"/>
     </g>
     <g id="line2d_12">
      <g>
       <use xlink:href="#m8cbbd222be" x="841.337071" y="378.652825" style="stroke: #000000; stroke-width: 0.8"/>
      </g>
     </g>
     <g id="text_6">
      <!-- 2025 -->
      <g transform="translate(836.254741 404.656319) rotate(-45) scale(0.1 -0.1)">
       <defs>
        <path id="SimHei-35" d="M 550 1325 
Q 725 650 1150 575 
Q 1575 500 1837 662 
Q 2100 825 2212 1087 
Q 2325 1350 2312 1675 
Q 2300 2000 2137 2225 
Q 1975 2450 1725 2525 
Q 1475 2600 1162 2525 
Q 850 2450 650 2175 
L 225 2225 
Q 275 2375 700 4375 
L 2675 4375 
L 2675 3925 
L 1075 3925 
Q 950 3250 825 2850 
Q 1200 3025 1525 3012 
Q 1850 3000 2150 2862 
Q 2450 2725 2587 2487 
Q 2725 2250 2787 2012 
Q 2850 1775 2837 1500 
Q 2825 1225 2725 937 
Q 2625 650 2425 462 
Q 2225 275 1937 162 
Q 1650 50 1275 75 
Q 900 100 562 350 
Q 225 600 100 1200 
L 550 1325 
z
" transform="scale(0.015625)"/>
       </defs>
       <use xlink:href="#SimHei-32"/>
       <use xlink:href="#SimHei-30" x="50"/>
       <use xlink:href="#SimHei-32" x="100"/>
       <use xlink:href="#SimHei-35" x="150"/>
      </g>
     </g>
    </g>
    <g id="text_7">
     <!-- 时间 -->
     <g transform="translate(443.121111 419.149578) scale(0.12 -0.12)">
      <defs>
       <path id="SimHei-65f6" d="M 2525 4575 
Q 2500 3675 2500 2400 
Q 2500 1125 2525 400 
L 2000 400 
L 2000 875 
L 1000 875 
L 1000 50 
L 475 50 
Q 500 1200 500 2350 
Q 500 3525 475 4575 
L 2525 4575 
z
M 4875 3825 
Q 4875 4575 4850 5225 
L 5400 5225 
Q 5375 4575 5375 3825 
Q 5750 3825 6175 3850 
L 6175 3375 
Q 5750 3400 5375 3400 
L 5375 50 
Q 5375 -325 5075 -425 
Q 4775 -525 4300 -575 
Q 4300 -275 4025 0 
Q 4500 -50 4687 -25 
Q 4875 0 4875 300 
L 4875 3400 
Q 3625 3400 2775 3375 
L 2775 3850 
Q 3575 3825 4875 3825 
z
M 2000 1300 
L 2000 2550 
L 1000 2550 
L 1000 1300 
L 2000 1300 
z
M 2000 2975 
L 2000 4150 
L 1000 4150 
L 1000 2975 
L 2000 2975 
z
M 3550 2725 
Q 3875 2200 4175 1600 
Q 3925 1525 3650 1375 
Q 3450 1975 3075 2500 
Q 3300 2600 3550 2725 
z
" transform="scale(0.015625)"/>
       <path id="SimHei-95f4" d="M 4450 3550 
Q 4425 3075 4425 2725 
L 4425 1400 
Q 4425 1075 4450 625 
L 1925 625 
Q 1950 1075 1950 1425 
L 1950 2725 
Q 1950 3075 1925 3550 
L 4450 3550 
z
M 5800 4875 
Q 5775 4400 5775 3925 
L 5775 250 
Q 5800 -325 5462 -450 
Q 5125 -575 4725 -625 
Q 4700 -325 4525 -25 
Q 5000 -50 5137 25 
Q 5275 100 5275 350 
L 5275 4450 
L 3775 4450 
Q 3175 4450 2650 4425 
L 2650 4900 
Q 3175 4875 3775 4875 
L 5800 4875 
z
M 550 -525 
Q 600 -25 600 525 
L 600 3150 
Q 600 3675 550 4025 
L 1125 4025 
Q 1100 3650 1100 3300 
L 1100 500 
Q 1100 0 1125 -525 
L 550 -525 
z
M 3950 1025 
L 3950 1950 
L 2425 1950 
L 2425 1025 
L 3950 1025 
z
M 3950 2350 
L 3950 3150 
L 2425 3150 
L 2425 2350 
L 3950 2350 
z
M 1525 5300 
Q 1750 5000 2225 4350 
Q 1950 4225 1700 4075 
Q 1450 4575 1075 5025 
Q 1350 5225 1525 5300 
z
" transform="scale(0.015625)"/>
      </defs>
      <use xlink:href="#SimHei-65f6"/>
      <use xlink:href="#SimHei-95f4" x="100"/>
     </g>
    </g>
   </g>
   <g id="matplotlib.axis_2">
    <g id="ytick_1">
     <g id="line2d_13">
      <path d="M 58.17125 338.445287 
L 852.070972 338.445287 
" clip-path="url(#p17f38ac168)" style="fill: none; stroke-dasharray: 2.96,1.28; stroke-dashoffset: 0; stroke: #b0b0b0; stroke-opacity: 0.3; stroke-width: 0.8"/>
     </g>
     <g id="line2d_14">
      <defs>
       <path id="mf20fc9a4f8" d="M 0 0 
L -3.5 0 
" style="stroke: #000000; stroke-width: 0.8"/>
      </defs>
      <g>
       <use xlink:href="#mf20fc9a4f8" x="58.17125" y="338.445287" style="stroke: #000000; stroke-width: 0.8"/>
      </g>
     </g>
     <g id="text_8">
      <!-- 10000 -->
      <g transform="translate(26.17125 341.882787) scale(0.1 -0.1)">
       <use xlink:href="#SimHei-31"/>
       <use xlink:href="#SimHei-30" x="50"/>
       <use xlink:href="#SimHei-30" x="100"/>
       <use xlink:href="#SimHei-30" x="150"/>
       <use xlink:href="#SimHei-30" x="200"/>
      </g>
     </g>
    </g>
    <g id="ytick_2">
     <g id="line2d_15">
      <path d="M 58.17125 291.766265 
L 852.070972 291.766265 
" clip-path="url(#p17f38ac168)" style="fill: none; stroke-dasharray: 2.96,1.28; stroke-dashoffset: 0; stroke: #b0b0b0; stroke-opacity: 0.3; stroke-width: 0.8"/>
     </g>
     <g id="line2d_16">
      <g>
       <use xlink:href="#mf20fc9a4f8" x="58.17125" y="291.766265" style="stroke: #000000; stroke-width: 0.8"/>
      </g>
     </g>
     <g id="text_9">
      <!-- 20000 -->
      <g transform="translate(26.17125 295.203765) scale(0.1 -0.1)">
       <use xlink:href="#SimHei-32"/>
       <use xlink:href="#SimHei-30" x="50"/>
       <use xlink:href="#SimHei-30" x="100"/>
       <use xlink:href="#SimHei-30" x="150"/>
       <use xlink:href="#SimHei-30" x="200"/>
      </g>
     </g>
    </g>
    <g id="ytick_3">
     <g id="line2d_17">
      <path d="M 58.17125 245.087243 
L 852.070972 245.087243 
" clip-path="url(#p17f38ac168)" style="fill: none; stroke-dasharray: 2.96,1.28; stroke-dashoffset: 0; stroke: #b0b0b0; stroke-opacity: 0.3; stroke-width: 0.8"/>
     </g>
     <g id="line2d_18">
      <g>
       <use xlink:href="#mf20fc9a4f8" x="58.17125" y="245.087243" style="stroke: #000000; stroke-width: 0.8"/>
      </g>
     </g>
     <g id="text_10">
      <!-- 30000 -->
      <g transform="translate(26.17125 248.524743) scale(0.1 -0.1)">
       <use xlink:href="#SimHei-33"/>
       <use xlink:href="#SimHei-30" x="50"/>
       <use xlink:href="#SimHei-30" x="100"/>
       <use xlink:href="#SimHei-30" x="150"/>
       <use xlink:href="#SimHei-30" x="200"/>
      </g>
     </g>
    </g>
    <g id="ytick_4">
     <g id="line2d_19">
      <path d="M 58.17125 198.408221 
L 852.070972 198.408221 
" clip-path="url(#p17f38ac168)" style="fill: none; stroke-dasharray: 2.96,1.28; stroke-dashoffset: 0; stroke: #b0b0b0; stroke-opacity: 0.3; stroke-width: 0.8"/>
     </g>
     <g id="line2d_20">
      <g>
       <use xlink:href="#mf20fc9a4f8" x="58.17125" y="198.408221" style="stroke: #000000; stroke-width: 0.8"/>
      </g>
     </g>
     <g id="text_11">
      <!-- 40000 -->
      <g transform="translate(26.17125 201.845721) scale(0.1 -0.1)">
       <use xlink:href="#SimHei-34"/>
       <use xlink:href="#SimHei-30" x="50"/>
       <use xlink:href="#SimHei-30" x="100"/>
       <use xlink:href="#SimHei-30" x="150"/>
       <use xlink:href="#SimHei-30" x="200"/>
      </g>
     </g>
    </g>
    <g id="ytick_5">
     <g id="line2d_21">
      <path d="M 58.17125 151.7292 
L 852.070972 151.7292 
" clip-path="url(#p17f38ac168)" style="fill: none; stroke-dasharray: 2.96,1.28; stroke-dashoffset: 0; stroke: #b0b0b0; stroke-opacity: 0.3; stroke-width: 0.8"/>
     </g>
     <g id="line2d_22">
      <g>
       <use xlink:href="#mf20fc9a4f8" x="58.17125" y="151.7292" style="stroke: #000000; stroke-width: 0.8"/>
      </g>
     </g>
     <g id="text_12">
      <!-- 50000 -->
      <g transform="translate(26.17125 155.1667) scale(0.1 -0.1)">
       <use xlink:href="#SimHei-35"/>
       <use xlink:href="#SimHei-30" x="50"/>
       <use xlink:href="#SimHei-30" x="100"/>
       <use xlink:href="#SimHei-30" x="150"/>
       <use xlink:href="#SimHei-30" x="200"/>
      </g>
     </g>
    </g>
    <g id="ytick_6">
     <g id="line2d_23">
      <path d="M 58.17125 105.050178 
L 852.070972 105.050178 
" clip-path="url(#p17f38ac168)" style="fill: none; stroke-dasharray: 2.96,1.28; stroke-dashoffset: 0; stroke: #b0b0b0; stroke-opacity: 0.3; stroke-width: 0.8"/>
     </g>
     <g id="line2d_24">
      <g>
       <use xlink:href="#mf20fc9a4f8" x="58.17125" y="105.050178" style="stroke: #000000; stroke-width: 0.8"/>
      </g>
     </g>
     <g id="text_13">
      <!-- 60000 -->
      <g transform="translate(26.17125 108.487678) scale(0.1 -0.1)">
       <defs>
        <path id="SimHei-36" d="M 250 1612 
Q 275 1975 387 2225 
Q 500 2475 725 2850 
L 1750 4450 
L 2325 4450 
L 1275 2800 
Q 1950 2975 2350 2750 
Q 2750 2525 2887 2237 
Q 3025 1950 3037 1612 
Q 3050 1275 2937 950 
Q 2825 625 2537 362 
Q 2250 100 1737 75 
Q 1225 50 862 262 
Q 500 475 362 862 
Q 225 1250 250 1612 
z
M 1025 787 
Q 1250 550 1625 525 
Q 2000 500 2250 775 
Q 2500 1050 2500 1575 
Q 2500 2100 2187 2300 
Q 1875 2500 1487 2450 
Q 1100 2400 925 2075 
Q 750 1750 775 1387 
Q 800 1025 1025 787 
z
" transform="scale(0.015625)"/>
       </defs>
       <use xlink:href="#SimHei-36"/>
       <use xlink:href="#SimHei-30" x="50"/>
       <use xlink:href="#SimHei-30" x="100"/>
       <use xlink:href="#SimHei-30" x="150"/>
       <use xlink:href="#SimHei-30" x="200"/>
      </g>
     </g>
    </g>
    <g id="ytick_7">
     <g id="line2d_25">
      <path d="M 58.17125 58.371156 
L 852.070972 58.371156 
" clip-path="url(#p17f38ac168)" style="fill: none; stroke-dasharray: 2.96,1.28; stroke-dashoffset: 0; stroke: #b0b0b0; stroke-opacity: 0.3; stroke-width: 0.8"/>
     </g>
     <g id="line2d_26">
      <g>
       <use xlink:href="#mf20fc9a4f8" x="58.17125" y="58.371156" style="stroke: #000000; stroke-width: 0.8"/>
      </g>
     </g>
     <g id="text_14">
      <!-- 70000 -->
      <g transform="translate(26.17125 61.808656) scale(0.1 -0.1)">
       <defs>
        <path id="SimHei-37" d="M 850 150 
Q 1300 2050 2425 3925 
L 275 3925 
L 275 4375 
L 2950 4375 
L 2950 3950 
Q 1775 2050 1400 150 
L 850 150 
z
" transform="scale(0.015625)"/>
       </defs>
       <use xlink:href="#SimHei-37"/>
       <use xlink:href="#SimHei-30" x="50"/>
       <use xlink:href="#SimHei-30" x="100"/>
       <use xlink:href="#SimHei-30" x="150"/>
       <use xlink:href="#SimHei-30" x="200"/>
      </g>
     </g>
    </g>
    <g id="text_15">
     <!-- 价格 (USD) -->
     <g transform="translate(20.67125 233.373912) rotate(-90) scale(0.12 -0.12)">
      <defs>
       <path id="SimHei-4ef7" d="M 2200 4975 
Q 2050 4725 1650 3775 
L 1650 450 
Q 1650 -225 1675 -650 
L 1175 -650 
Q 1175 -225 1200 450 
L 1200 2975 
Q 900 2425 650 2100 
Q 525 2275 225 2450 
Q 750 3025 1125 3800 
Q 1500 4575 1625 5175 
Q 1950 5025 2200 4975 
z
M 4175 4700 
Q 4850 3525 6150 2950 
Q 5925 2750 5775 2500 
Q 4725 3100 3950 4300 
Q 3300 3125 2250 2350 
Q 2125 2525 1900 2725 
Q 2825 3325 3250 4050 
Q 3675 4775 3750 5150 
Q 4150 4950 4325 4900 
L 4175 4700 
z
M 3475 2650 
Q 3400 2075 3325 1087 
Q 3250 100 2325 -675 
Q 2175 -450 1925 -300 
Q 2850 350 2912 1262 
Q 2975 2175 2950 2700 
Q 3275 2650 3475 2650 
z
M 5075 2700 
Q 5050 2150 5050 1725 
L 5050 150 
Q 5050 -225 5075 -650 
L 4550 -650 
Q 4575 -225 4575 175 
L 4575 1875 
Q 4575 2150 4550 2700 
L 5075 2700 
z
" transform="scale(0.015625)"/>
       <path id="SimHei-683c" d="M 4075 4875 
Q 3975 4750 3750 4350 
L 5625 4350 
Q 5450 3850 5212 3437 
Q 4975 3025 4650 2650 
Q 4950 2450 5412 2287 
Q 5875 2125 6150 2100 
Q 5975 1900 5875 1600 
Q 5550 1725 5125 1912 
Q 4700 2100 4300 2400 
Q 3925 2125 3537 1937 
Q 3150 1750 2575 1550 
Q 2475 1775 2300 1925 
Q 2825 2050 3262 2250 
Q 3700 2450 3975 2675 
Q 3625 3050 3325 3575 
Q 3175 3350 2875 2950 
Q 2700 3100 2475 3200 
Q 2825 3550 3112 4075 
Q 3400 4600 3550 5100 
Q 3775 4950 4075 4875 
z
M 5575 1650 
Q 5550 1350 5550 575 
Q 5550 -200 5575 -575 
L 5050 -575 
L 5050 -175 
L 3500 -175 
L 3500 -600 
L 2975 -600 
Q 3000 -200 3000 550 
Q 3000 1325 2975 1650 
L 5575 1650 
z
M 1850 5100 
Q 1825 4775 1825 4475 
L 1825 3825 
Q 2300 3825 2525 3850 
L 2525 3400 
Q 2300 3425 1825 3425 
L 1825 2725 
Q 1950 2800 2125 2950 
Q 2350 2600 2550 2200 
Q 2350 2075 2175 1950 
Q 1975 2375 1825 2625 
L 1825 275 
Q 1825 -275 1850 -625 
L 1350 -625 
Q 1375 -275 1375 275 
L 1375 2425 
Q 1150 1850 625 850 
Q 475 1025 250 1150 
Q 650 1775 900 2375 
Q 1150 2975 1250 3425 
Q 900 3425 475 3400 
L 475 3850 
Q 925 3825 1375 3825 
L 1375 4475 
Q 1375 4750 1350 5100 
L 1850 5100 
z
M 5050 200 
L 5050 1275 
L 3500 1275 
L 3500 200 
L 5050 200 
z
M 4300 2925 
Q 4675 3300 4975 3975 
L 3550 3975 
Q 3850 3350 4300 2925 
z
" transform="scale(0.015625)"/>
       <path id="SimHei-20" transform="scale(0.015625)"/>
       <path id="SimHei-28" d="M 2975 -200 
L 2700 -475 
Q 2075 125 1762 775 
Q 1450 1425 1450 2250 
Q 1450 3075 1762 3725 
Q 2075 4375 2700 5000 
L 2975 4725 
Q 2400 4175 2112 3587 
Q 1825 3000 1825 2250 
Q 1825 1500 2112 912 
Q 2400 325 2975 -200 
z
" transform="scale(0.015625)"/>
       <path id="SimHei-55" d="M 2875 1375 
Q 2875 775 2562 425 
Q 2250 75 1575 75 
Q 900 75 587 425 
Q 275 775 275 1375 
L 275 4400 
L 850 4400 
L 850 1375 
Q 850 950 1050 750 
Q 1250 550 1575 550 
Q 1900 550 2100 750 
Q 2300 950 2300 1375 
L 2300 4400 
L 2875 4400 
L 2875 1375 
z
" transform="scale(0.015625)"/>
       <path id="SimHei-53" d="M 2900 1325 
Q 2900 750 2537 412 
Q 2175 75 1550 75 
Q 925 75 575 425 
Q 225 775 225 1300 
L 225 1475 
L 800 1475 
L 800 1325 
Q 800 950 1025 750 
Q 1250 550 1550 550 
Q 1950 550 2137 762 
Q 2325 975 2325 1275 
Q 2325 1525 2100 1737 
Q 1875 1950 1450 2125 
Q 850 2350 587 2625 
Q 325 2900 325 3275 
Q 325 3800 687 4125 
Q 1050 4450 1550 4450 
Q 2200 4450 2487 4062 
Q 2775 3675 2775 3225 
L 2200 3225 
Q 2225 3500 2050 3725 
Q 1875 3950 1550 3950 
Q 1250 3950 1075 3787 
Q 900 3625 900 3350 
Q 900 3125 1037 2962 
Q 1175 2800 1750 2575 
Q 2300 2350 2600 2037 
Q 2900 1725 2900 1325 
z
" transform="scale(0.015625)"/>
       <path id="SimHei-44" d="M 2925 2250 
Q 2925 1100 2437 612 
Q 1950 125 1125 125 
L 275 125 
L 275 4400 
L 1125 4400 
Q 2050 4400 2487 3900 
Q 2925 3400 2925 2250 
z
M 2325 2250 
Q 2325 3175 2025 3550 
Q 1725 3925 1125 3925 
L 850 3925 
L 850 600 
L 1125 600 
Q 1725 600 2025 962 
Q 2325 1325 2325 2250 
z
" transform="scale(0.015625)"/>
       <path id="SimHei-29" d="M 1675 2250 
Q 1675 1425 1362 775 
Q 1050 125 425 -475 
L 150 -200 
Q 725 325 1012 912 
Q 1300 1500 1300 2250 
Q 1300 3000 1012 3587 
Q 725 4175 150 4725 
L 425 5000 
Q 1050 4375 1362 3725 
Q 1675 3075 1675 2250 
z
" transform="scale(0.015625)"/>
      </defs>
      <use xlink:href="#SimHei-4ef7"/>
      <use xlink:href="#SimHei-683c" x="100"/>
      <use xlink:href="#SimHei-20" x="200"/>
      <use xlink:href="#SimHei-28" x="250"/>
      <use xlink:href="#SimHei-55" x="300"/>
      <use xlink:href="#SimHei-53" x="350"/>
      <use xlink:href="#SimHei-44" x="400"/>
      <use xlink:href="#SimHei-29" x="450"/>
     </g>
    </g>
   </g>
   <g id="line2d_27">
    <path d="M 94.257601 351.511445 
L 94.666511 352.609056 
L 95.075422 350.838754 
L 95.893243 350.774383 
L 96.711064 347.102938 
L 97.119974 347.519782 
L 97.528885 348.63177 
L 97.937795 346.861421 
L 98.346706 347.687686 
L 98.755616 346.917623 
L 99.164527 347.266035 
L 99.573437 344.000044 
L 99.982348 343.94683 
L 100.391258 344.420155 
L 100.800169 343.517989 
L 101.209079 343.505479 
L 101.61799 344.505624 
L 102.0269 344.782664 
L 102.435811 344.345375 
L 102.844721 344.595901 
L 103.253632 345.892831 
L 103.662542 345.731882 
L 104.071453 346.191297 
L 104.889274 343.544643 
L 105.298184 341.366413 
L 105.707095 341.705676 
L 106.116005 340.717575 
L 106.524916 341.465933 
L 106.933826 341.317867 
L 107.751647 341.749041 
L 108.160558 342.193519 
L 108.569468 340.256246 
L 108.978379 339.509568 
L 109.387289 339.314777 
L 109.7962 338.935183 
L 110.20511 337.736933 
L 110.614021 339.13693 
L 111.022931 337.403971 
L 111.431842 336.921403 
L 111.840752 337.373396 
L 112.249663 336.837848 
L 112.658573 338.890045 
L 113.067484 338.831462 
L 113.476394 339.81765 
L 113.885305 337.676437 
L 114.294215 340.341435 
L 114.703126 340.329159 
L 115.112036 339.952786 
L 115.520947 340.075038 
L 115.929857 338.742165 
L 116.747678 341.638879 
L 117.156589 344.115621 
L 117.565499 343.938427 
L 118.38332 345.336931 
L 118.792231 345.298327 
L 119.201141 343.50884 
L 119.610052 344.233159 
L 120.018962 344.276103 
L 120.427873 342.857948 
L 120.836783 342.497586 
L 121.245694 343.642249 
L 121.654604 347.625603 
L 122.063514 348.108451 
L 122.472425 348.273275 
L 122.881335 348.086745 
L 123.290246 362.718378 
L 123.699156 359.083949 
L 124.108067 360.981638 
L 124.516977 360.098285 
L 124.925888 361.649569 
L 125.334798 360.325425 
L 125.743709 359.950125 
L 126.152619 356.358968 
L 126.56153 356.144291 
L 126.97044 356.244091 
L 127.379351 357.974903 
L 127.788261 354.935538 
L 128.197172 353.640615 
L 128.606082 353.954719 
L 129.014993 353.674971 
L 129.423903 355.440605 
L 129.832814 356.012236 
L 130.241724 357.670415 
L 130.650635 355.275968 
L 131.059545 355.201002 
L 131.468456 354.115808 
L 131.877366 353.410161 
L 132.286277 353.690189 
L 132.695187 353.11655 
L 133.104098 353.509634 
L 133.513008 350.909052 
L 133.921919 351.527923 
L 134.330829 350.762574 
L 134.73974 351.125456 
L 135.14865 353.107541 
L 135.966471 352.898092 
L 136.375382 353.205614 
L 136.784292 353.061889 
L 137.193203 354.217008 
L 137.602113 351.973147 
L 138.011024 352.320393 
L 138.419934 351.288553 
L 138.828845 351.885391 
L 139.237755 353.257334 
L 139.646666 353.189463 
L 140.464487 350.197244 
L 141.282308 349.934534 
L 141.691218 349.21367 
L 142.100129 348.833143 
L 142.509039 348.999507 
L 142.91795 344.146803 
L 143.32686 344.886992 
L 143.735771 343.920923 
L 144.144681 343.243657 
L 144.553592 343.60724 
L 144.962502 343.710867 
L 145.780323 342.446052 
L 146.189234 338.50877 
L 146.598144 339.378821 
L 147.007055 340.595323 
L 147.415965 344.407271 
L 147.824876 345.159971 
L 148.233786 343.996403 
L 149.051607 339.416304 
L 149.460518 341.636171 
L 149.869428 341.333458 
L 150.278338 339.938829 
L 151.096159 339.493091 
L 151.50507 340.725884 
L 151.91398 342.792737 
L 152.322891 342.319646 
L 152.731801 342.276934 
L 153.140712 344.418614 
L 153.549622 343.578345 
L 153.958533 343.854545 
L 154.776354 340.424991 
L 155.185264 341.119668 
L 155.594175 339.8563 
L 156.003085 341.020708 
L 156.411996 337.508112 
L 156.820906 340.695029 
L 157.638727 339.429934 
L 158.047638 340.213675 
L 158.456548 340.002966 
L 158.865459 339.626313 
L 159.274369 339.462843 
L 159.68328 339.507561 
L 160.09219 338.982096 
L 160.501101 341.804309 
L 160.910011 340.942008 
L 161.318922 340.903684 
L 161.727832 341.5163 
L 162.545653 340.659786 
L 163.363474 341.309885 
L 163.772385 341.665066 
L 164.181295 341.437645 
L 164.590206 341.737605 
L 164.999116 339.912455 
L 165.408027 340.196264 
L 165.816937 341.729203 
L 166.225848 341.948594 
L 166.634758 342.356009 
L 167.043669 343.057174 
L 167.86149 342.214338 
L 168.2704 342.466451 
L 168.679311 342.030236 
L 169.088221 342.709229 
L 169.497132 342.841237 
L 169.906042 342.480875 
L 170.314953 342.78919 
L 170.723863 341.506497 
L 171.132774 341.911718 
L 171.541684 341.077704 
L 171.950595 342.028228 
L 172.359505 341.767246 
L 172.768416 342.02076 
L 173.177326 341.699982 
L 173.586237 341.980663 
L 173.995147 341.918906 
L 174.812968 342.488997 
L 176.0397 342.137644 
L 176.44861 342.362684 
L 176.857521 341.292707 
L 177.266431 340.694469 
L 177.675342 340.297184 
L 178.084252 340.602791 
L 178.493162 339.843697 
L 178.902073 338.764851 
L 179.310983 333.637534 
L 179.719894 334.214907 
L 180.128804 333.30812 
L 180.537715 333.312415 
L 180.946625 332.21149 
L 181.355536 330.037601 
L 181.764446 333.44433 
L 182.173357 332.751333 
L 182.582267 332.881287 
L 182.991178 330.300218 
L 183.400088 330.218296 
L 183.808999 331.003577 
L 184.217909 330.223197 
L 184.62682 330.595369 
L 185.03573 329.609321 
L 185.444641 331.947194 
L 186.262462 330.136421 
L 186.671372 330.227258 
L 187.489193 329.524926 
L 187.898104 327.797195 
L 188.307014 329.36617 
L 188.715925 330.255032 
L 189.124835 329.793097 
L 189.533746 331.297141 
L 189.942656 330.682752 
L 190.351567 330.751977 
L 190.760477 330.28486 
L 191.169388 332.291031 
L 191.578298 331.623474 
L 191.987209 332.235203 
L 192.396119 331.31782 
L 192.80503 331.602889 
L 193.21394 330.457759 
L 193.622851 330.745535 
L 194.031761 329.473719 
L 194.440672 331.963718 
L 194.849582 337.787813 
L 195.258493 336.362235 
L 195.667403 337.667194 
L 196.485224 336.702105 
L 196.894135 337.854097 
L 198.120866 336.634654 
L 198.529777 336.387115 
L 198.938687 336.891669 
L 199.347598 335.30953 
L 199.756508 334.779537 
L 200.165419 333.992061 
L 200.98324 334.088314 
L 201.39215 333.400918 
L 201.801061 334.14951 
L 202.209971 336.497745 
L 202.618882 335.973119 
L 203.027792 337.318175 
L 203.436703 335.008217 
L 203.845613 335.239978 
L 204.663434 334.831164 
L 205.072345 335.195867 
L 205.481255 334.522008 
L 205.890166 334.820241 
L 206.299076 335.555249 
L 207.116897 335.915004 
L 207.934718 334.747328 
L 208.343628 335.646133 
L 208.752539 335.334643 
L 209.161449 334.124817 
L 209.57036 333.541002 
L 209.97927 332.408662 
L 210.388181 332.054835 
L 210.797091 331.311565 
L 211.206002 331.814252 
L 211.614912 331.826715 
L 212.023823 331.419534 
L 212.432733 332.28683 
L 212.841644 332.096006 
L 213.250554 331.428776 
L 213.659465 330.269596 
L 214.068375 329.52964 
L 214.477286 325.464038 
L 214.886196 324.588526 
L 215.295107 324.800682 
L 215.704017 323.920036 
L 216.112928 324.307005 
L 216.521838 324.197962 
L 216.930749 321.472001 
L 217.339659 323.198051 
L 217.74857 322.314417 
L 218.15748 321.827088 
L 218.566391 320.74927 
L 218.975301 320.886973 
L 219.384212 321.877175 
L 219.793122 319.663842 
L 220.202033 319.101453 
L 220.610943 312.35162 
L 221.019854 312.398766 
L 221.428764 315.953934 
L 221.837675 312.888056 
L 222.246585 313.57279 
L 222.655496 313.718429 
L 223.064406 311.91181 
L 223.473317 309.0755 
L 223.882227 308.940877 
L 224.291138 310.10902 
L 224.700048 310.638593 
L 225.517869 302.69205 
L 225.92678 302.147119 
L 226.33569 302.022486 
L 226.744601 298.041466 
L 227.153511 297.8168 
L 227.562422 299.167551 
L 227.971332 299.384281 
L 228.380243 295.687256 
L 228.789153 297.745334 
L 229.198064 305.07226 
L 229.606974 305.118706 
L 230.424795 300.238554 
L 230.833706 293.185914 
L 231.242616 297.531311 
L 231.651527 295.481495 
L 232.060437 294.464779 
L 232.469348 298.065506 
L 232.878258 295.744905 
L 233.287169 294.756523 
L 233.696079 295.655094 
L 234.104989 299.589156 
L 234.5139 298.575427 
L 235.331721 300.931551 
L 235.740631 297.327184 
L 236.149542 295.617331 
L 236.558452 295.159176 
L 236.967363 294.443634 
L 237.785184 278.709396 
L 238.194094 277.261272 
L 238.603005 273.927363 
L 239.011915 275.636236 
L 239.420826 279.070925 
L 239.829736 273.97787 
L 240.238647 276.676058 
L 240.647557 274.358724 
L 241.056468 269.768916 
L 241.465378 261.455756 
L 241.874289 262.444091 
L 242.283199 258.720272 
L 242.69211 257.293807 
L 243.10102 250.336112 
L 243.509931 250.111633 
L 243.918841 248.206849 
L 244.327752 234.919012 
L 244.736662 231.083303 
L 245.145573 235.804139 
L 245.554483 226.651223 
L 246.372304 201.058283 
L 246.781215 195.687721 
L 247.190125 197.996419 
L 247.599036 207.043747 
L 248.007946 219.859706 
L 248.416857 226.176451 
L 248.825767 210.678362 
L 249.234678 202.401612 
L 249.643588 213.61522 
L 250.052499 217.103263 
L 250.461409 217.879862 
L 250.87032 214.133123 
L 251.27923 217.586344 
L 251.688141 219.56208 
L 252.097051 241.118919 
L 252.505962 231.339478 
L 252.914872 235.387342 
L 253.323783 234.538251 
L 253.732693 234.564858 
L 254.141604 233.567934 
L 254.550514 243.378091 
L 254.959425 229.380406 
L 255.368335 225.23839 
L 255.777246 225.188536 
L 256.186156 230.649515 
L 256.595067 228.626493 
L 257.412888 209.523103 
L 257.821798 212.707593 
L 258.230709 206.389214 
L 258.639619 202.203506 
L 259.04853 204.029823 
L 259.45744 168.650952 
L 259.866351 168.438329 
L 260.275261 175.966908 
L 260.684172 161.207328 
L 261.093082 164.390417 
L 261.501993 165.015496 
L 261.910903 158.367937 
L 262.319813 161.47998 
L 262.728724 155.77417 
L 263.137634 141.834601 
L 263.546545 144.481815 
L 263.955455 124.160569 
L 264.364366 124.463096 
L 264.773276 117.146719 
L 265.182187 132.648356 
L 265.591097 156.905903 
L 266.000008 153.240666 
L 266.408918 165.388742 
L 266.817829 169.108406 
L 267.226739 169.904003 
L 267.63565 174.435463 
L 268.04456 153.656903 
L 268.453471 159.008093 
L 268.862381 150.098375 
L 269.271292 159.318788 
L 269.680202 157.556095 
L 270.089113 156.946981 
L 270.498023 147.193166 
L 270.906934 140.642138 
L 271.315844 128.928831 
L 271.724755 124.41455 
L 272.133665 115.444849 
L 272.542576 118.018917 
L 272.951486 99.502889 
L 273.360397 109.866006 
L 273.769307 125.564674 
L 274.178218 119.517174 
L 274.587128 110.124327 
L 274.996039 116.028337 
L 275.404949 114.245898 
L 275.81386 113.908549 
L 276.22277 117.412837 
L 276.631681 132.668988 
L 277.040591 131.46635 
L 277.449502 140.975987 
L 277.858412 145.689961 
L 278.267323 128.270237 
L 278.676233 124.575359 
L 279.085144 124.759788 
L 279.494054 116.087572 
L 279.902965 110.901066 
L 280.720786 111.023039 
L 281.129696 109.951428 
L 281.538607 118.811433 
L 282.356428 109.111299 
L 282.765338 114.427293 
L 283.174249 123.939077 
L 283.583159 114.024126 
L 283.99207 113.720619 
L 284.40098 106.127856 
L 284.809891 105.038835 
L 285.218801 105.703684 
L 285.627712 88.362427 
L 286.036622 91.235381 
L 286.445533 90.2997 
L 286.854443 98.819462 
L 287.263354 105.019089 
L 287.672264 123.021554 
L 288.081175 125.434253 
L 288.490085 121.737928 
L 289.307906 143.835964 
L 289.716817 146.477156 
L 290.534637 156.085426 
L 290.943548 133.051102 
L 291.352458 128.333814 
L 291.761369 129.107519 
L 292.170279 135.134807 
L 292.57919 115.8131 
L 292.9881 115.317835 
L 293.397011 121.022759 
L 293.805921 118.263188 
L 294.214832 136.791866 
L 294.623742 117.018165 
L 295.032653 121.884127 
L 295.441563 117.584662 
L 295.850474 110.362017 
L 296.259384 113.261765 
L 296.668295 124.580027 
L 297.077205 120.594199 
L 297.486116 153.450162 
L 297.895026 153.265079 
L 298.303937 152.469295 
L 298.712847 166.839246 
L 299.121758 168.386608 
L 299.530668 181.892997 
L 299.939579 185.105727 
L 300.348489 213.858557 
L 300.7574 195.949917 
L 301.16631 211.23557 
L 301.575221 210.312632 
L 301.984131 223.356992 
L 302.393042 204.027022 
L 302.801952 206.228265 
L 303.210863 201.946911 
L 303.619773 205.270131 
L 304.028684 218.650626 
L 304.437594 223.590853 
L 304.846505 218.754347 
L 305.255415 211.227168 
L 305.664326 213.844554 
L 306.073236 209.757385 
L 306.482147 201.924132 
L 306.891057 213.210139 
L 307.299968 219.352165 
L 307.708878 218.030635 
L 308.117789 228.503167 
L 308.526699 229.305953 
L 308.93561 210.600548 
L 309.34452 213.925635 
L 309.753431 210.862278 
L 310.162341 219.198544 
L 310.571252 202.980105 
L 310.980162 195.99823 
L 311.389073 197.735857 
L 311.797983 206.114881 
L 312.206894 207.310051 
L 312.615804 217.920799 
L 313.024715 219.489775 
L 313.433625 218.946244 
L 313.842536 237.576915 
L 314.251446 233.372863 
L 315.069267 223.320395 
L 315.478178 237.691186 
L 315.887088 234.427388 
L 316.295999 223.146516 
L 316.704909 224.105536 
L 317.11382 217.491866 
L 317.52273 221.537677 
L 317.931641 228.727693 
L 318.340551 227.411998 
L 318.749461 223.292201 
L 319.158372 220.410332 
L 319.567282 227.862031 
L 319.976193 225.388649 
L 320.385103 227.059245 
L 320.794014 231.66371 
L 321.202924 227.275415 
L 321.611835 228.736189 
L 322.020745 225.206694 
L 322.429656 230.679156 
L 322.838566 232.344944 
L 323.247477 231.923666 
L 323.656387 236.311587 
L 324.065298 238.627473 
L 324.474208 237.991705 
L 324.883119 236.785099 
L 325.70094 246.065869 
L 326.10985 235.07688 
L 326.518761 234.407877 
L 326.927671 228.123667 
L 327.336582 225.210662 
L 327.745492 219.969168 
L 328.563313 200.938831 
L 328.972224 198.316917 
L 329.381134 198.331294 
L 329.790045 188.109102 
L 330.198955 191.584542 
L 330.607866 199.129692 
L 331.016776 202.386114 
L 331.425687 206.777537 
L 333.061329 177.064052 
L 333.470239 180.696473 
L 333.87915 169.217962 
L 334.28806 172.338034 
L 334.696971 172.683412 
L 335.105881 177.87412 
L 335.514792 161.998584 
L 335.923702 165.413108 
L 336.332613 165.855112 
L 337.150434 176.487986 
L 337.559344 176.444388 
L 338.377165 154.891843 
L 338.786076 157.228595 
L 339.194986 155.280446 
L 339.603897 154.115198 
L 340.012807 162.586693 
L 340.421718 156.521641 
L 340.830628 166.461706 
L 341.239539 156.070815 
L 342.05736 157.480849 
L 342.46627 165.812681 
L 342.875181 165.261961 
L 343.284091 157.281576 
L 343.693002 155.24581 
L 344.101912 151.733214 
L 344.510823 152.122984 
L 344.919733 143.528256 
L 345.328644 139.294375 
L 345.737554 166.369001 
L 346.146465 170.175302 
L 346.555375 168.556333 
L 346.964285 175.764648 
L 347.373196 174.257943 
L 347.782106 170.28299 
L 348.191017 175.345377 
L 348.599927 165.212342 
L 349.008838 160.498274 
L 349.826659 164.332629 
L 350.235569 159.698522 
L 350.64448 164.604441 
L 351.05339 184.331602 
L 351.462301 194.980207 
L 351.871211 181.866997 
L 352.280122 175.697664 
L 352.689032 185.288756 
L 353.097943 185.941935 
L 353.506853 183.653449 
L 354.324674 193.616433 
L 354.733585 191.293031 
L 355.142495 180.557697 
L 355.551406 160.403982 
L 355.960316 162.769255 
L 356.369227 160.131377 
L 356.778137 155.347104 
L 357.187048 144.858094 
L 357.595958 126.919299 
L 358.004869 134.060163 
L 358.413779 133.284311 
L 358.82269 128.624391 
L 359.2316 129.981443 
L 359.640511 116.853669 
L 360.049421 123.736117 
L 360.458332 117.340764 
L 360.867242 117.429734 
L 361.276153 97.243485 
L 361.685063 100.963103 
L 362.502884 95.668441 
L 363.320705 77.036183 
L 363.729616 94.812768 
L 364.138526 101.837634 
L 364.547437 99.043755 
L 364.956347 101.072098 
L 365.365258 90.678734 
L 365.774168 103.515325 
L 366.183079 112.456085 
L 367.0009 94.53008 
L 367.40981 96.371661 
L 367.818721 98.982838 
L 368.227631 100.797205 
L 368.636542 90.019579 
L 369.045452 91.529692 
L 369.454363 98.538408 
L 369.863273 100.675793 
L 370.272184 98.185514 
L 370.681094 89.76938 
L 371.090005 69.920339 
L 371.498915 72.61918 
L 371.907826 82.259472 
L 372.316736 82.764399 
L 372.725647 85.808011 
L 373.134557 84.604766 
L 373.543468 79.287559 
L 373.952378 88.214268 
L 374.361289 104.775378 
L 374.770199 103.440358 
L 375.179109 119.559792 
L 375.58802 114.142131 
L 375.99693 106.415492 
L 376.405841 111.482454 
L 376.814751 122.567974 
L 377.223662 116.527289 
L 377.632572 118.40836 
L 378.041483 109.903116 
L 378.450393 134.334122 
L 378.859304 129.691893 
L 379.268214 117.770771 
L 379.677125 115.430425 
L 380.086035 119.284665 
L 380.494946 118.194664 
L 380.903856 121.479606 
L 381.312767 134.91985 
L 381.721677 155.685387 
L 382.130588 154.547072 
L 382.539498 149.66636 
L 382.948409 148.980039 
L 383.357319 149.529731 
L 383.76623 163.186145 
L 384.17514 165.076879 
L 384.584051 154.576667 
L 384.992961 151.4776 
L 385.401872 167.12044 
L 385.810782 159.462606 
L 386.219693 157.027362 
L 387.037514 169.788379 
L 387.446424 166.505537 
L 387.855335 167.220893 
L 388.264245 166.133599 
L 388.673156 156.911131 
L 389.082066 158.319531 
L 389.490977 147.813717 
L 389.899887 147.90152 
L 390.308798 149.863626 
L 390.717708 148.109288 
L 391.126619 148.454946 
L 391.535529 163.194781 
L 391.94444 168.231821 
L 392.35335 165.168697 
L 392.762261 169.3882 
L 393.171171 162.359647 
L 393.580082 164.397046 
L 394.397903 171.184969 
L 394.806813 182.298684 
L 395.215724 184.0203 
L 395.624634 191.096046 
L 396.033545 190.567359 
L 396.442455 189.704358 
L 396.851366 189.901016 
L 397.260276 185.668163 
L 397.669187 180.190986 
L 398.078097 186.457878 
L 398.487008 184.124627 
L 398.895918 184.011057 
L 399.304829 184.070013 
L 399.713739 188.131275 
L 400.12265 187.428755 
L 400.53156 190.659457 
L 400.940471 195.2298 
L 401.349381 215.001167 
L 401.758292 221.414351 
L 402.167202 215.938295 
L 402.576113 213.997381 
L 402.985023 212.606486 
L 403.393933 213.30191 
L 403.802844 211.664597 
L 404.620665 206.965233 
L 405.029575 208.295958 
L 405.438486 205.564582 
L 405.847396 204.501748 
L 406.256307 212.895709 
L 406.665217 210.957363 
L 407.074128 191.059776 
L 407.483038 191.954426 
L 407.891949 187.294553 
L 408.300859 180.483524 
L 408.70977 179.53594 
L 409.11868 177.996792 
L 409.527591 182.091849 
L 409.936501 187.327882 
L 410.754322 188.821937 
L 411.163233 186.570701 
L 411.572143 177.193259 
L 411.981054 180.326822 
L 412.389964 196.000984 
L 412.798875 198.527533 
L 413.207785 198.038664 
L 414.025606 212.373838 
L 414.434517 206.668868 
L 414.843427 211.244906 
L 415.661248 202.053059 
L 416.070159 202.531286 
L 416.479069 209.148738 
L 416.88798 183.65765 
L 417.29689 177.770492 
L 417.705801 180.236172 
L 418.114711 186.953189 
L 418.523622 202.382193 
L 418.932532 201.218485 
L 419.341443 205.779726 
L 419.750353 207.800041 
L 420.159264 204.333516 
L 420.568174 189.344509 
L 420.977085 201.106269 
L 421.385995 204.338464 
L 421.794906 203.975348 
L 422.203816 208.783381 
L 422.612727 199.942234 
L 423.021637 201.767571 
L 423.430548 193.208178 
L 423.839458 194.123554 
L 424.248369 190.204337 
L 424.657279 188.133562 
L 425.06619 192.516815 
L 425.4751 193.729816 
L 425.884011 187.372694 
L 426.292921 184.95178 
L 426.701832 179.776477 
L 427.110742 178.274812 
L 427.519653 177.350054 
L 427.928563 166.536906 
L 428.746384 163.703302 
L 429.155295 165.415535 
L 429.564205 172.686493 
L 429.973116 169.077505 
L 430.382026 171.283042 
L 430.790937 168.499338 
L 431.199847 167.691044 
L 431.608757 172.746196 
L 432.017668 183.608778 
L 432.426578 182.331079 
L 432.835489 187.896059 
L 433.244399 185.552959 
L 433.65331 188.330921 
L 434.06222 200.600035 
L 434.471131 198.058409 
L 434.880041 193.05045 
L 435.288952 198.677186 
L 435.697862 195.832006 
L 436.106773 196.64044 
L 436.515683 199.910726 
L 436.924594 194.668625 
L 437.333504 191.438203 
L 437.742415 192.068323 
L 438.560236 199.765741 
L 438.969146 201.014778 
L 439.378057 200.974961 
L 439.786967 196.419322 
L 440.195878 207.218187 
L 440.604788 201.975806 
L 441.013699 199.612213 
L 441.83152 209.467415 
L 442.24043 205.557814 
L 442.649341 205.29263 
L 443.058251 209.009261 
L 443.467162 199.855271 
L 443.876072 214.49862 
L 444.693893 219.542662 
L 445.102804 226.236387 
L 445.511714 244.731036 
L 445.920625 240.33952 
L 446.329535 249.269964 
L 446.738446 249.616275 
L 447.147356 248.415224 
L 447.556267 244.682349 
L 447.965177 238.884115 
L 448.374088 245.675352 
L 448.782998 243.010353 
L 449.191909 251.084004 
L 449.600819 243.597109 
L 450.00973 248.81685 
L 450.41864 247.677649 
L 450.827551 243.71516 
L 451.236461 249.245644 
L 451.645372 246.69963 
L 452.054282 247.224442 
L 452.463193 248.815263 
L 452.872103 251.483203 
L 453.689924 247.5701 
L 454.098835 236.992074 
L 454.507745 236.680165 
L 454.916656 245.99361 
L 455.325566 242.974457 
L 455.734477 246.486634 
L 456.143387 245.721891 
L 456.552298 245.464363 
L 456.961208 238.677747 
L 457.370119 239.834313 
L 457.779029 244.131397 
L 458.18794 244.574101 
L 458.59685 249.326258 
L 459.005761 252.440589 
L 459.414671 261.077002 
L 459.823581 280.155278 
L 460.232492 281.793712 
L 460.641402 279.705713 
L 461.050313 289.892989 
L 461.459223 289.577906 
L 461.868134 296.570517 
L 462.277044 289.086889 
L 462.685955 289.087403 
L 463.094865 288.388944 
L 463.503776 291.822326 
L 463.912686 286.584287 
L 464.321597 285.988849 
L 464.730507 284.805536 
L 465.139418 286.920656 
L 465.548328 288.300068 
L 465.957239 290.453231 
L 466.77506 292.036023 
L 467.18397 295.128088 
L 467.592881 295.254075 
L 468.001791 294.959904 
L 468.410702 290.661326 
L 468.819612 290.945508 
L 469.228523 289.131188 
L 469.637433 284.181017 
L 470.046344 284.322128 
L 470.455254 284.335758 
L 471.681986 294.899594 
L 472.090896 290.669915 
L 472.499807 289.017617 
L 472.908717 287.891719 
L 473.317628 286.185321 
L 473.726538 288.040532 
L 474.135449 280.411219 
L 474.544359 275.911175 
L 474.95327 276.720216 
L 475.36218 277.05215 
L 475.771091 279.233741 
L 476.180001 280.32491 
L 476.588912 279.724571 
L 476.997822 285.647112 
L 477.406733 285.909588 
L 477.815643 277.984517 
L 478.224554 273.827844 
L 478.633464 274.150769 
L 479.042375 274.758717 
L 479.451285 276.393369 
L 479.860196 276.511514 
L 480.269106 277.819554 
L 481.086927 279.522451 
L 481.495838 276.304212 
L 481.904748 277.976302 
L 482.313659 276.948523 
L 482.722569 273.981558 
L 483.13148 277.062606 
L 483.54039 273.309146 
L 483.949301 273.400917 
L 484.358211 271.210317 
L 484.767122 271.034338 
L 485.176032 271.669826 
L 485.993853 273.772716 
L 486.402764 276.163055 
L 486.811674 276.870056 
L 487.220585 287.871414 
L 488.038405 284.691546 
L 488.447316 285.231995 
L 488.856226 284.628482 
L 489.265137 285.380201 
L 489.674047 284.488819 
L 490.082958 290.641067 
L 490.491868 291.590752 
L 490.900779 293.840634 
L 491.309689 290.432505 
L 491.7186 292.645418 
L 492.12751 291.532777 
L 492.536421 291.152623 
L 492.945331 291.990978 
L 493.354242 292.550939 
L 493.763152 291.764865 
L 494.172063 292.714596 
L 494.580973 297.411579 
L 494.989884 295.067219 
L 495.398794 294.941512 
L 495.807705 285.417405 
L 496.216615 284.071975 
L 496.625526 283.238615 
L 497.034436 280.583185 
L 497.443347 290.956057 
L 497.852257 290.708005 
L 498.261168 293.15786 
L 498.670078 292.684441 
L 499.078989 291.235898 
L 499.487899 294.49148 
L 499.89681 293.92741 
L 500.30572 297.017655 
L 500.714631 298.948486 
L 501.123541 294.559398 
L 501.532452 295.080896 
L 501.941362 296.805265 
L 502.350273 297.333298 
L 502.759183 295.370726 
L 503.168094 296.064796 
L 503.577004 294.507164 
L 503.985915 293.673056 
L 504.394825 294.461465 
L 504.803736 294.982683 
L 505.212646 296.16903 
L 506.030467 290.189354 
L 506.848288 291.949854 
L 507.257199 293.959759 
L 507.666109 294.483171 
L 508.07502 294.384865 
L 508.48393 295.818611 
L 508.892841 296.154093 
L 509.301751 295.708168 
L 509.710662 294.683097 
L 510.119572 295.608275 
L 510.528483 296.110261 
L 510.937393 295.206602 
L 511.346304 293.867474 
L 512.164125 295.855487 
L 512.573035 296.238489 
L 512.981946 295.666904 
L 513.390856 295.480281 
L 513.799767 293.771596 
L 514.208677 294.895066 
L 515.026498 288.164558 
L 515.435409 290.38872 
L 516.253229 287.986805 
L 517.07105 289.475539 
L 517.479961 289.508774 
L 517.888871 291.057491 
L 518.297782 290.796182 
L 518.706692 286.405086 
L 519.115603 285.700933 
L 519.933424 289.006928 
L 520.342334 298.547653 
L 520.751245 310.798189 
L 521.160155 302.963862 
L 521.569066 305.441771 
L 521.977976 306.647164 
L 522.386887 308.898166 
L 523.204708 306.234101 
L 523.613618 307.344175 
L 524.431439 307.168242 
L 524.84035 307.167168 
L 525.658171 311.458791 
L 526.475992 307.622615 
L 526.884902 307.642034 
L 527.702723 308.297314 
L 528.111634 308.436371 
L 528.520544 309.444031 
L 528.929455 308.372187 
L 529.338365 305.006116 
L 529.747276 305.875606 
L 530.156186 305.33707 
L 530.565097 306.305847 
L 530.974007 305.276574 
L 531.382918 305.927046 
L 531.791828 305.354715 
L 532.200739 306.53252 
L 532.609649 304.723895 
L 533.01856 305.169866 
L 533.42747 305.174861 
L 533.836381 305.372966 
L 534.245291 304.790506 
L 534.654202 302.153748 
L 535.063112 302.020946 
L 535.472023 304.106611 
L 535.880933 307.487199 
L 536.289844 306.813154 
L 536.698754 306.991982 
L 537.107665 308.389225 
L 537.516575 306.257487 
L 537.925486 306.588395 
L 538.334396 306.603519 
L 538.743307 306.803912 
L 539.152217 306.534947 
L 539.561128 306.553666 
L 539.970038 306.146251 
L 540.787859 307.883084 
L 541.19677 307.480898 
L 541.60568 307.602216 
L 542.014591 307.906004 
L 542.832412 307.296982 
L 543.241322 307.2862 
L 543.650233 306.468476 
L 544.059143 306.554879 
L 544.468053 306.000332 
L 544.876964 306.033381 
L 545.285874 305.173274 
L 545.694785 304.937871 
L 546.103695 303.713014 
L 546.512606 301.366926 
L 547.330427 292.092971 
L 547.739337 287.308792 
L 548.148248 287.698188 
L 548.557158 286.231767 
L 548.966069 286.469083 
L 549.374979 288.603901 
L 549.78389 286.764188 
L 550.1928 279.31599 
L 550.601711 278.772926 
L 551.010621 279.126146 
L 551.419532 278.152562 
L 551.828442 279.476192 
L 552.237353 277.478096 
L 552.646263 277.717513 
L 553.055174 277.416387 
L 553.464084 277.657064 
L 553.872995 274.297575 
L 554.281905 278.574073 
L 554.690816 277.178464 
L 555.099726 274.342573 
L 555.508637 275.480234 
L 555.917547 275.746491 
L 556.326458 276.236901 
L 556.735368 278.075728 
L 557.144279 278.871092 
L 557.553189 276.640115 
L 557.9621 277.935271 
L 558.37101 283.381079 
L 558.779921 284.180037 
L 559.188831 283.072064 
L 559.597742 283.440875 
L 560.006652 283.485547 
L 560.415563 281.497627 
L 560.824473 271.582023 
L 561.233384 275.345892 
L 561.642294 270.434092 
L 562.051205 270.144775 
L 562.460115 271.826107 
L 562.869026 269.163349 
L 563.277936 270.984018 
L 564.095757 273.373797 
L 564.504668 276.897643 
L 564.913578 277.029371 
L 565.322489 275.172573 
L 565.731399 275.46553 
L 566.14031 277.101724 
L 566.54922 274.826588 
L 566.958131 275.59049 
L 567.367041 280.776436 
L 567.775952 280.812706 
L 568.184862 280.422142 
L 568.593773 280.516621 
L 569.002683 281.506403 
L 569.411594 283.805438 
L 569.820504 290.075457 
L 570.229415 291.062859 
L 570.638325 289.638962 
L 571.047236 282.443951 
L 571.456146 272.564943 
L 571.865057 269.965248 
L 572.273967 271.761223 
L 572.682877 268.432449 
L 573.091788 257.246522 
L 573.500698 259.522777 
L 573.909609 254.549688 
L 574.318519 255.744017 
L 574.72743 253.930724 
L 575.13634 257.919446 
L 575.545251 253.044103 
L 575.954161 256.969528 
L 576.363072 256.929944 
L 576.771982 254.572187 
L 577.180893 258.507882 
L 577.589803 257.8723 
L 577.998714 252.795817 
L 578.407624 254.289872 
L 578.816535 252.250793 
L 579.225445 252.309748 
L 579.634356 253.620775 
L 580.043266 255.356628 
L 580.452177 253.65065 
L 580.861087 253.629457 
L 581.678908 254.86029 
L 582.087819 254.710684 
L 582.496729 252.911768 
L 582.90564 246.780105 
L 583.31455 244.151702 
L 583.723461 245.609721 
L 584.132371 243.342195 
L 584.541282 242.90766 
L 584.950192 243.709792 
L 585.359103 243.665167 
L 585.768013 247.746687 
L 586.176924 243.313394 
L 586.585834 250.702263 
L 586.994745 253.285713 
L 587.403655 257.864038 
L 587.812566 255.277974 
L 588.221476 256.334087 
L 588.630387 256.705978 
L 589.039297 253.018989 
L 589.448208 252.484514 
L 589.857118 247.548301 
L 590.266029 248.30016 
L 590.674939 248.679427 
L 591.08385 248.666544 
L 591.49276 254.104417 
L 591.901671 251.296207 
L 592.310581 249.633033 
L 592.719492 250.510599 
L 593.128402 247.395007 
L 593.537313 250.463733 
L 593.946223 252.415383 
L 594.355134 255.969103 
L 595.172955 256.296043 
L 595.581865 259.237428 
L 595.990776 260.047823 
L 596.399686 260.139921 
L 596.808597 259.475491 
L 597.217507 258.334096 
L 597.626418 258.932988 
L 598.035328 257.197602 
L 598.444239 259.925197 
L 598.853149 259.649884 
L 599.26206 258.612816 
L 599.67097 260.268288 
L 600.07988 259.794543 
L 600.488791 258.065832 
L 600.897701 262.223065 
L 601.306612 261.547247 
L 601.715522 260.463686 
L 602.124433 259.771203 
L 602.533343 254.119634 
L 602.942254 255.653507 
L 603.351164 255.849558 
L 604.168985 259.940835 
L 604.577896 257.958563 
L 604.986806 258.767838 
L 605.395717 258.553161 
L 605.804627 265.027588 
L 606.213538 258.016959 
L 606.622448 262.174846 
L 607.031359 261.431389 
L 607.440269 261.528482 
L 607.84918 264.500068 
L 608.25809 264.106377 
L 608.667001 264.201416 
L 609.075911 264.065766 
L 609.484822 267.826462 
L 609.893732 265.633061 
L 610.302643 262.148426 
L 610.711553 261.345593 
L 611.120464 262.171905 
L 611.529374 259.817509 
L 612.347195 245.115764 
L 612.756106 245.624425 
L 613.165016 241.873393 
L 613.573927 242.625252 
L 613.982837 242.927592 
L 614.391748 243.836292 
L 614.800658 241.855001 
L 615.209569 244.725901 
L 615.618479 242.999244 
L 616.02739 242.883993 
L 616.4363 242.352319 
L 616.845211 242.207007 
L 617.254121 239.690215 
L 617.663032 241.509249 
L 618.071942 242.730839 
L 618.480853 245.575366 
L 618.889763 243.478217 
L 619.298674 243.758618 
L 619.707584 244.337065 
L 620.525405 242.183341 
L 620.934316 243.31344 
L 621.343226 238.29904 
L 621.752137 243.630811 
L 622.161047 243.735792 
L 622.569958 244.004337 
L 622.978868 244.443073 
L 623.387779 245.744811 
L 623.796689 245.511042 
L 624.2056 246.020824 
L 624.61451 245.546005 
L 625.023421 246.048831 
L 625.432331 244.696306 
L 625.841242 248.931261 
L 626.250152 248.686616 
L 626.659063 248.11223 
L 627.067973 248.71523 
L 627.476884 248.288771 
L 627.885794 248.107843 
L 628.703615 248.671025 
L 629.112525 246.459653 
L 629.521436 248.886869 
L 629.930346 248.851253 
L 630.339257 249.223051 
L 630.748167 249.41845 
L 631.157078 249.342409 
L 631.565988 248.769938 
L 631.974899 246.1589 
L 632.383809 247.038473 
L 632.79272 247.627749 
L 633.20163 247.766479 
L 633.610541 247.747154 
L 634.019451 248.33685 
L 634.428362 247.743606 
L 634.837272 248.821565 
L 635.246183 251.013098 
L 635.655093 260.848835 
L 636.064004 263.506785 
L 636.472914 263.292015 
L 636.881825 262.871997 
L 637.699646 263.497449 
L 638.108556 261.738957 
L 638.517467 262.918396 
L 638.926377 263.478731 
L 639.335288 263.67777 
L 639.744198 263.283799 
L 640.153109 263.198704 
L 640.562019 255.747145 
L 640.97093 257.690626 
L 641.37984 264.035285 
L 641.788751 264.668859 
L 642.197661 264.367966 
L 642.606572 263.893241 
L 643.015482 264.570974 
L 643.833303 264.879382 
L 644.242214 262.568537 
L 644.651124 264.176629 
L 645.060035 264.218127 
L 645.468945 264.498201 
L 645.877856 267.668127 
L 646.286766 264.505249 
L 647.104587 261.318799 
L 647.513498 260.958111 
L 648.331319 261.296487 
L 648.740229 260.19953 
L 649.14914 258.109477 
L 649.55805 258.507462 
L 649.966961 261.10711 
L 650.784782 261.070327 
L 651.193692 262.599438 
L 651.602603 262.336029 
L 652.011513 262.724118 
L 652.420424 262.017771 
L 652.829334 258.991103 
L 653.238245 259.525251 
L 653.647155 259.265716 
L 654.056066 254.45773 
L 654.464976 256.782625 
L 654.873887 257.100276 
L 655.282797 255.456661 
L 655.691708 257.175289 
L 656.100618 254.744713 
L 656.509528 254.625308 
L 656.918439 254.81025 
L 657.327349 256.336327 
L 657.73626 257.269908 
L 658.14517 259.67201 
L 658.554081 260.212973 
L 658.962991 259.73512 
L 659.371902 259.779559 
L 659.780812 258.371393 
L 660.189723 252.085455 
L 661.007544 252.929319 
L 661.416454 251.091519 
L 661.825365 246.632132 
L 662.234275 245.508288 
L 662.643186 245.122439 
L 663.052096 230.75683 
L 663.461007 226.776323 
L 663.869917 224.100122 
L 664.687738 226.919675 
L 665.096649 226.037534 
L 665.505559 223.960831 
L 665.91447 224.199641 
L 666.32338 223.429251 
L 666.732291 219.780538 
L 667.141201 222.020384 
L 667.550112 223.069776 
L 667.959022 221.457996 
L 668.367933 221.692278 
L 668.776843 221.532589 
L 669.185754 219.884679 
L 669.594664 218.8316 
L 670.003575 213.807211 
L 670.412485 211.003949 
L 670.821396 211.805101 
L 671.230306 212.112575 
L 671.639217 214.918918 
L 672.048127 219.174831 
L 672.457038 208.405934 
L 672.865948 216.316581 
L 673.274859 214.214112 
L 673.683769 214.427995 
L 674.09268 210.732137 
L 674.50159 210.317067 
L 674.910501 218.285783 
L 675.319411 210.505837 
L 675.728322 211.038258 
L 676.137232 209.081053 
L 676.546143 208.767837 
L 676.955053 210.323368 
L 677.363964 211.279028 
L 677.772874 208.589523 
L 678.181785 208.422552 
L 678.590695 209.032553 
L 679.408516 200.973934 
L 679.817427 198.537709 
L 680.635248 179.394362 
L 681.044158 180.844352 
L 681.453069 183.129524 
L 681.861979 178.938448 
L 682.27089 181.0735 
L 682.6798 180.719159 
L 683.088711 192.557473 
L 683.497621 191.441891 
L 683.906532 185.01587 
L 684.315442 184.300607 
L 684.724352 189.351091 
L 685.133263 187.7746 
L 685.542173 191.99149 
L 685.951084 186.001871 
L 686.359994 187.784123 
L 686.768905 181.282015 
L 687.177815 180.381717 
L 687.586726 179.881131 
L 687.995636 181.126901 
L 688.404547 184.444192 
L 688.813457 181.715196 
L 689.222368 186.696782 
L 689.631278 182.402685 
L 690.040189 186.44084 
L 690.449099 188.759901 
L 690.85801 188.417604 
L 691.26692 187.748693 
L 691.675831 178.898491 
L 692.084741 175.316529 
L 692.493652 185.126966 
L 692.902562 179.031293 
L 693.311473 179.059253 
L 693.720383 179.884492 
L 694.129294 180.06794 
L 694.538204 165.961447 
L 694.947115 169.887339 
L 695.356025 167.348047 
L 695.764936 168.817643 
L 696.173846 185.41871 
L 696.582757 185.114083 
L 696.991667 190.321781 
L 697.809488 183.760578 
L 698.218399 185.449658 
L 698.627309 192.211581 
L 699.03622 190.664032 
L 699.44513 190.491273 
L 699.854041 191.031395 
L 700.262951 200.424662 
L 700.671862 198.886215 
L 701.080772 198.01201 
L 701.489683 198.589849 
L 701.898593 189.896255 
L 702.307504 188.509328 
L 702.716414 188.927432 
L 703.125325 182.991541 
L 703.943146 186.365034 
L 704.352056 184.017359 
L 704.760967 183.470934 
L 705.169877 184.352748 
L 705.578788 186.35159 
L 705.987698 185.764275 
L 706.396609 183.942626 
L 707.62334 165.113149 
L 708.441161 159.66468 
L 708.850072 152.115375 
L 709.258982 153.131484 
L 709.667893 143.349522 
L 710.076803 142.953543 
L 710.485714 141.814062 
L 710.894624 144.061517 
L 711.303535 141.750765 
L 711.712445 143.444934 
L 712.121356 141.185249 
L 712.530266 143.096428 
L 713.348087 148.25558 
L 713.756997 144.408902 
L 714.165908 143.659097 
L 714.983729 118.879585 
L 715.392639 93.697373 
L 715.80155 99.770874 
L 716.21046 93.903694 
L 716.619371 95.773749 
L 717.028281 90.51447 
L 717.437192 66.56001 
L 717.846102 87.666863 
L 718.255013 76.697153 
L 718.663923 73.200288 
L 719.072834 67.127254 
L 719.481744 66.244647 
L 719.890655 63.245006 
L 720.299565 48.670788 
L 720.708476 51.593315 
L 721.117386 44.029447 
L 721.935207 60.705807 
L 722.344118 80.307355 
L 722.753028 65.870234 
L 723.161939 69.527489 
L 723.570849 96.006584 
L 723.97976 68.451444 
L 724.797581 87.327834 
L 725.206491 86.425201 
L 726.024312 58.931258 
L 726.433223 58.427171 
L 726.842133 60.845191 
L 727.251044 54.727391 
L 727.659954 59.068821 
L 728.068865 60.321499 
L 728.477775 52.396194 
L 728.886686 60.005855 
L 729.295596 79.544807 
L 729.704507 77.21417 
L 730.113417 65.430004 
L 730.522328 68.544289 
L 730.931238 63.52452 
L 731.340149 61.356793 
L 731.749059 50.809154 
L 732.15797 62.357544 
L 732.56688 55.425336 
L 732.975791 58.342075 
L 733.793612 86.730949 
L 734.202522 78.621262 
L 734.611433 89.085999 
L 735.020343 87.343004 
L 735.429254 99.08754 
L 735.838164 88.852184 
L 736.247075 87.228081 
L 736.655985 81.987987 
L 737.064896 81.985373 
L 737.473806 73.218259 
L 737.882717 75.110253 
L 738.291627 85.026791 
L 738.700538 84.052367 
L 739.109448 87.45214 
L 739.927269 90.492765 
L 740.33618 87.004068 
L 740.74509 101.913347 
L 741.154 112.682338 
L 741.562911 109.435158 
L 741.971821 91.597237 
L 742.380732 86.882516 
L 742.789642 86.322554 
L 743.607463 94.257614 
L 744.016374 99.48123 
L 744.425284 90.701 
L 744.834195 101.315903 
L 745.243105 101.194537 
L 745.652016 98.123058 
L 746.060926 91.326172 
L 746.469837 97.686609 
L 746.878747 76.078843 
L 747.287658 80.61273 
L 747.696568 72.262833 
L 748.105479 72.770701 
L 748.514389 75.763713 
L 748.9233 51.618475 
L 749.741121 62.261292 
L 750.150031 67.848631 
L 750.558942 65.139661 
L 750.967852 61.682706 
L 751.376763 65.337206 
L 751.785673 61.001846 
L 752.194584 65.847315 
L 752.603494 69.32943 
L 753.012405 66.063065 
L 753.421315 69.854149 
L 753.830226 68.795282 
L 754.239136 68.800977 
L 754.648047 63.926426 
L 755.056957 55.860571 
L 755.465868 53.19912 
L 755.874778 54.641222 
L 756.283689 61.379152 
L 756.692599 61.589861 
L 757.10151 60.013604 
L 757.51042 60.518391 
L 757.919331 70.908021 
L 758.328241 66.474681 
L 758.737152 73.43443 
L 759.146062 76.837424 
L 759.554973 75.977316 
L 759.963883 73.883202 
L 760.372794 74.688602 
L 760.781704 80.89229 
L 761.190615 81.830305 
L 761.599525 82.317541 
L 762.008436 85.708445 
L 762.417346 85.155532 
L 762.826257 90.066165 
L 763.235167 103.681082 
L 763.644078 96.6199 
L 764.052988 101.012489 
L 764.461899 97.084543 
L 764.870809 103.053062 
L 765.27972 100.444452 
L 765.68863 92.110706 
L 766.097541 91.513308 
L 766.506451 95.082013 
L 766.915362 104.076547 
L 767.324272 118.820442 
L 767.733183 120.786656 
L 768.142093 113.311758 
L 768.551004 124.385515 
L 768.959914 120.38601 
L 769.368824 114.152587 
L 770.186645 117.467311 
L 770.595556 114.903652 
L 771.413377 101.325612 
L 771.822287 82.998354 
L 772.231198 81.505326 
L 772.640108 85.96784 
L 773.049019 86.434957 
L 773.457929 73.961949 
L 773.86684 71.721543 
L 774.27575 66.935169 
L 774.684661 69.891492 
L 775.093571 77.341464 
L 775.502482 79.955536 
L 775.911392 77.976578 
L 776.320303 68.136454 
L 776.729213 68.190088 
L 777.138124 66.540545 
L 777.547034 73.379908 
L 777.955945 76.165199 
L 778.364855 83.447126 
L 778.773766 80.058136 
L 779.182676 98.05612 
L 779.591587 101.792029 
L 780.000497 113.63445 
L 780.409408 132.969788 
L 780.818318 123.619046 
L 781.227229 127.763443 
L 781.636139 97.180141 
L 782.04505 101.138522 
L 782.45396 100.739323 
L 782.862871 111.059682 
L 783.271781 108.099998 
L 783.680692 102.309419 
L 784.089602 111.195984 
L 784.498513 116.528269 
L 784.907423 110.303435 
L 785.316334 107.421519 
L 785.725244 112.391154 
L 786.134155 107.671205 
L 786.543065 109.653663 
L 786.951976 99.653943 
L 787.360886 103.295793 
L 787.769797 86.204736 
L 788.178707 85.645662 
L 788.587618 85.351631 
L 788.996528 91.821343 
L 789.405439 107.780901 
L 789.814349 109.55517 
L 790.22326 108.042256 
L 790.63217 109.139307 
L 791.041081 109.839492 
L 791.449991 117.644831 
L 791.858902 109.10131 
L 792.267812 116.777208 
L 792.676723 114.521818 
L 793.494544 133.230443 
L 793.903454 132.306712 
L 794.312365 128.996749 
L 794.721275 118.857832 
L 795.130186 116.085145 
L 795.539096 117.476133 
L 795.948007 113.768325 
L 796.356917 102.725562 
L 796.765828 105.082713 
L 797.583648 113.387098 
L 797.992559 103.584503 
L 798.81038 91.289249 
L 799.21929 90.107989 
L 799.628201 89.41756 
L 800.037111 88.344876 
L 800.446022 89.459431 
L 800.854932 85.152311 
L 801.263843 90.336903 
L 801.672753 80.898499 
L 802.081664 78.116616 
L 802.490574 77.705607 
L 802.899485 78.900543 
L 803.717306 101.288876 
L 804.126216 102.019402 
L 804.535127 101.536601 
L 804.944037 95.312934 
L 805.352948 95.443635 
L 805.761858 91.887114 
L 806.170769 94.668763 
L 806.579679 94.965222 
L 806.98859 102.081299 
L 807.3975 103.526621 
L 807.806411 93.193706 
L 808.215321 90.083856 
L 808.624232 91.653205 
L 809.033142 76.650708 
L 809.442053 72.028784 
L 809.850963 69.480716 
L 810.259874 70.406035 
L 810.668784 65.709098 
L 811.077695 65.942493 
L 811.486605 62.889732 
L 811.895516 70.612729 
L 812.304426 70.386336 
L 812.713337 73.921572 
L 813.122247 66.781409 
L 813.531158 73.783029 
L 813.940068 71.941868 
L 814.348979 67.605667 
L 814.757889 58.547556 
L 815.1668 45.597815 
L 815.57571 47.426139 
L 815.984621 47.357381 
L 815.984621 47.357381 
" clip-path="url(#p17f38ac168)" style="fill: none; stroke: #2962ff; stroke-linecap: square"/>
   </g>
   <g id="patch_3">
    <path d="M 58.17125 378.652825 
L 58.17125 28.095 
" style="fill: none; stroke: #000000; stroke-width: 0.8; stroke-linejoin: miter; stroke-linecap: square"/>
   </g>
   <g id="patch_4">
    <path d="M 852.070972 378.652825 
L 852.070972 28.095 
" style="fill: none; stroke: #000000; stroke-width: 0.8; stroke-linejoin: miter; stroke-linecap: square"/>
   </g>
   <g id="patch_5">
    <path d="M 58.17125 378.652825 
L 852.070972 378.652825 
" style="fill: none; stroke: #000000; stroke-width: 0.8; stroke-linejoin: miter; stroke-linecap: square"/>
   </g>
   <g id="patch_6">
    <path d="M 58.17125 28.095 
L 852.070972 28.095 
" style="fill: none; stroke: #000000; stroke-width: 0.8; stroke-linejoin: miter; stroke-linecap: square"/>
   </g>
   <g id="text_16">
    <!-- BTC价格走势 -->
    <g transform="translate(416.621111 22.095) scale(0.14 -0.14)">
     <defs>
      <path id="SimHei-42" d="M 2950 1400 
Q 2950 675 2550 400 
Q 2150 125 1525 125 
L 275 125 
L 275 4400 
L 1575 4400 
Q 2200 4400 2512 4075 
Q 2825 3750 2825 3300 
Q 2825 2850 2612 2637 
Q 2400 2425 2175 2350 
Q 2475 2275 2712 2037 
Q 2950 1800 2950 1400 
z
M 2250 3300 
Q 2250 3625 2062 3775 
Q 1875 3925 1600 3925 
L 850 3925 
L 850 2600 
L 1575 2600 
Q 1850 2600 2050 2762 
Q 2250 2925 2250 3300 
z
M 2350 1400 
Q 2350 1800 2087 1962 
Q 1825 2125 1500 2125 
L 850 2125 
L 850 600 
L 1425 600 
Q 1875 600 2112 775 
Q 2350 950 2350 1400 
z
" transform="scale(0.015625)"/>
      <path id="SimHei-54" d="M 2850 3925 
L 1850 3925 
L 1850 125 
L 1275 125 
L 1275 3925 
L 275 3925 
L 275 4400 
L 2850 4400 
L 2850 3925 
z
" transform="scale(0.015625)"/>
      <path id="SimHei-43" d="M 2975 1825 
Q 2950 875 2575 475 
Q 2200 75 1675 75 
Q 1075 75 650 562 
Q 225 1050 225 2125 
Q 225 3300 637 3875 
Q 1050 4450 1700 4450 
Q 2250 4450 2612 4037 
Q 2975 3625 2950 2875 
L 2400 2875 
Q 2400 3425 2225 3700 
Q 2050 3975 1700 3975 
Q 1300 3975 1062 3562 
Q 825 3150 825 2175 
Q 825 1275 1062 912 
Q 1300 550 1675 550 
Q 1950 550 2175 812 
Q 2400 1075 2400 1825 
L 2975 1825 
z
" transform="scale(0.015625)"/>
      <path id="SimHei-8d70" d="M 2100 2025 
Q 2025 1750 1987 1587 
Q 1950 1425 1925 1050 
Q 2450 450 2950 250 
L 2950 2525 
L 1350 2525 
Q 950 2525 400 2500 
L 400 2975 
Q 950 2950 2950 2950 
L 2950 3850 
Q 1650 3850 1150 3825 
L 1150 4300 
Q 1650 4275 2950 4275 
Q 2950 4625 2925 5100 
L 3450 5100 
Q 3425 4700 3425 4275 
Q 4925 4275 5400 4300 
L 5400 3825 
Q 4925 3850 3425 3850 
L 3425 2950 
Q 5375 2950 5825 2975 
L 5825 2500 
Q 5375 2525 3425 2525 
L 3425 1675 
Q 4925 1675 5375 1700 
L 5375 1225 
Q 4925 1250 3425 1250 
L 3425 125 
Q 3850 50 4725 75 
Q 5600 100 6100 150 
Q 5900 -125 5825 -425 
L 4475 -425 
Q 3725 -425 3375 -350 
Q 3025 -275 2587 -62 
Q 2150 150 1775 575 
Q 1500 -125 850 -650 
Q 650 -450 375 -350 
Q 1025 75 1225 475 
Q 1425 875 1475 1312 
Q 1525 1750 1525 2100 
Q 1850 2025 2100 2025 
z
" transform="scale(0.015625)"/>
      <path id="SimHei-52bf" d="M 2700 1500 
Q 2725 1700 2725 1925 
Q 3075 1850 3275 1825 
Q 3225 1700 3200 1500 
L 5325 1500 
Q 5300 1150 5237 662 
Q 5175 175 5075 -62 
Q 4975 -300 4737 -375 
Q 4500 -450 3825 -525 
Q 3800 -275 3550 25 
Q 4325 -25 4475 62 
Q 4625 150 4675 350 
Q 4725 550 4775 1100 
L 3125 1100 
Q 2850 325 2250 -12 
Q 1650 -350 775 -600 
Q 675 -325 400 -125 
Q 1050 -50 1687 225 
Q 2325 500 2600 1100 
L 1550 1100 
Q 1075 1100 650 1075 
L 650 1525 
Q 1075 1500 1550 1500 
L 2700 1500 
z
M 2350 2250 
Q 3025 2500 3350 3050 
Q 3175 3175 2850 3325 
Q 3025 3475 3100 3675 
L 3500 3425 
Q 3550 3625 3600 4075 
Q 3225 4075 2925 4025 
L 2875 4425 
L 3600 4425 
Q 3600 4900 3550 5200 
Q 3775 5150 4125 5125 
Q 4050 4875 4050 4450 
L 5275 4475 
Q 5200 3975 5175 3450 
Q 5150 2925 5262 2650 
Q 5375 2375 5487 2337 
Q 5600 2300 5600 2925 
Q 5800 2725 6125 2675 
Q 5975 2075 5875 1925 
Q 5775 1775 5600 1750 
Q 5425 1725 5112 2000 
Q 4800 2275 4725 2800 
Q 4650 3325 4725 4100 
L 4050 4075 
Q 4000 3525 3950 3200 
Q 4150 3075 4450 2900 
Q 4225 2725 4100 2550 
Q 3925 2700 3775 2800 
Q 3400 2325 2850 1950 
Q 2675 2125 2350 2250 
z
M 2525 3300 
Q 2125 3200 1950 3175 
L 1950 2250 
Q 1925 1975 1662 1900 
Q 1400 1825 1000 1750 
Q 975 2025 800 2300 
Q 1350 2275 1425 2325 
Q 1500 2375 1500 2625 
L 1500 3075 
Q 875 2900 450 2775 
Q 375 3050 225 3225 
Q 675 3275 1500 3450 
L 1500 4025 
Q 800 4025 425 4000 
L 425 4450 
Q 800 4425 1500 4425 
Q 1500 4875 1475 5150 
L 2025 5150 
Q 1950 4900 1950 4425 
Q 2200 4425 2575 4450 
L 2575 4000 
Q 2200 4025 1950 4025 
L 1950 3550 
Q 2250 3600 2550 3700 
Q 2525 3525 2525 3300 
z
" transform="scale(0.015625)"/>
     </defs>
     <use xlink:href="#SimHei-42"/>
     <use xlink:href="#SimHei-54" x="50"/>
     <use xlink:href="#SimHei-43" x="100"/>
     <use xlink:href="#SimHei-4ef7" x="150"/>
     <use xlink:href="#SimHei-683c" x="250"/>
     <use xlink:href="#SimHei-8d70" x="350"/>
     <use xlink:href="#SimHei-52bf" x="450"/>
    </g>
   </g>
  </g>
 </g>
 <defs>
  <clipPath id="p17f38ac168">
   <rect x="58.17125" y="28.095" width="793.899722" height="350.557825"/>
  </clipPath>
 </defs>
</svg>
